<?xml version="1.0" standalone="no"?>
<!DOCTYPE svg PUBLIC "-//W3C//DTD SVG 20010904//EN"
 "http://www.w3.org/TR/2001/REC-SVG-20010904/DTD/svg10.dtd">
<svg version="1.0" xmlns="http://www.w3.org/2000/svg"
 width="512.000000pt" height="512.000000pt" viewBox="0 0 512.000000 512.000000"
 preserveAspectRatio="xMidYMid meet">

<g transform="translate(0.000000,512.000000) scale(0.100000,-0.100000)"
fill="#000000" stroke="none">
<path d="M2330 4795 c-18 -19 -25 -40 -28 -84 -5 -72 10 -121 50 -161 24 -24
38 -30 73 -30 38 0 47 4 66 31 31 44 30 142 -3 200 -39 70 -114 91 -158 44z"/>
<path d="M2680 4806 c-68 -37 -98 -188 -51 -255 19 -27 28 -31 66 -31 80 0
131 79 123 191 -7 95 -65 135 -138 95z"/>
<path d="M2095 4618 c-31 -18 -43 -39 -51 -85 -19 -122 71 -238 156 -203 38
16 55 53 55 124 0 122 -84 208 -160 164z"/>
<path d="M2934 4611 c-44 -27 -69 -84 -69 -157 0 -71 17 -108 55 -124 85 -35
175 81 156 203 -8 47 -21 68 -53 85 -30 17 -53 15 -89 -7z"/>
<path d="M2493 4371 c-135 -50 -243 -174 -243 -280 0 -34 6 -49 29 -72 26 -26
36 -29 93 -29 56 0 71 4 118 35 30 19 62 34 70 34 8 0 40 -15 70 -34 47 -31
62 -35 118 -35 57 0 67 3 93 29 23 23 29 38 29 72 0 118 -150 270 -290 293
-23 4 -53 -1 -87 -13z"/>
<path d="M304 3901 c-9 -9 -3 -620 7 -681 23 -145 107 -255 245 -320 75 -36
90 -40 162 -40 43 0 101 7 129 15 58 17 173 90 173 110 0 7 -15 38 -34 70 -19
31 -39 79 -45 106 -7 30 -11 189 -11 397 l0 347 -311 0 c-171 0 -313 -2 -315
-4z"/>
<path d="M1530 3558 c0 -272 3 -353 15 -391 86 -283 406 -395 649 -228 71 49
74 65 31 136 -63 105 -65 122 -65 492 l0 333 -315 0 -315 0 0 -342z"/>
<path d="M2760 3593 c0 -170 5 -336 10 -371 11 -65 51 -162 76 -183 8 -6 14
-17 14 -24 0 -22 80 -86 146 -117 144 -67 334 -39 447 66 l28 26 -30 37 c-65
83 -66 89 -66 500 l0 373 -312 0 -313 0 0 -307z"/>
<path d="M3992 3532 l3 -367 32 -66 c49 -99 133 -175 238 -215 76 -29 213 -26
285 5 81 36 152 92 194 155 67 102 69 112 73 504 l5 352 -417 0 -416 0 3 -368z"/>
<path d="M2943 2663 c-31 -6 -70 -48 -77 -84 -3 -18 -6 -375 -6 -795 l0 -764
623 0 622 0 -5 788 c-6 883 -1 830 -77 851 -37 10 -1030 14 -1080 4z m292
-875 c21 -25 25 -40 25 -93 0 -35 -5 -75 -11 -89 -16 -35 -64 -57 -100 -44
-44 15 -59 48 -59 130 1 79 10 99 54 122 35 18 60 11 91 -26z"/>
<path d="M60 609 c-58 -23 -60 -32 -60 -302 l0 -249 29 -29 29 -29 2502 0
2502 0 29 29 29 29 0 247 c0 271 -2 283 -62 304 -41 15 -4961 14 -4998 0z"/>
</g>
</svg>
